# xmcd CD database file
#
# Track frame offsets:
#	150
#	19627
#	34785
#	48657
#	63462
#	78610
#	97035
#	110637
#	126747
#	142137
#	161207
#	179067
#	196525
#	215565
#	232907
#	250555
#	268967
#
# Disc length: 3849 seconds
#
# Revision: 0
# Processed by: cddbd v1.5.1PL0 Copyright (c) Steve Scherf et al.
# Submitted via: CDex 1.51
#
DISCID=050f0711
DTITLE=MIQ - Ｂｅｓｔ of MIQ -MIQUEST- 魂は刻をこえて・・・
DYEAR=2004
DGENRE=JPop
TTITLE0=ダンバイン とぶ
TTITLE1=怒りの獣神
TTITLE2=21世紀少年(21st century boy)
TTITLE3=時間の誘惑
TTITLE4=さやかのテーマ
TTITLE5=Z・刻をこえて
TTITLE6=エルガイム〜TIME FOR L-GAIN〜(LIVE)
TTITLE7=風のノー・リプライ
TTITLE8=水の星へ愛をこめて
TTITLE9=ICE MAN
TTITLE10=GET IT!(LIVE)
TTITLE11=悲しみのDestiny(LIVE)
TTITLE12=Dream My Love
TTITLE13=獅子の女王(LIVE)
TTITLE14=みえるだろう バイストン・ウェル(LIVE)
TTITLE15=MEN OF DESTINY(LIVE)
TTITLE16=ダンバイン とぶ(LIVE)
EXTD=YEAR: 2004
EXTT0=
EXTT1=
EXTT2=
EXTT3=
EXTT4=
EXTT5=
EXTT6=
EXTT7=
EXTT8=
EXTT9=
EXTT10=
EXTT11=
EXTT12=
EXTT13=
EXTT14=
EXTT15=
EXTT16=
PLAYORDER=
